<?xml version="1.0" encoding="utf-8"?>
<!-- Svg Vector Icons : http://www.onlinewebfonts.com/icon -->
<!DOCTYPE svg PUBLIC "-//W3C//DTD SVG 1.1//EN" "http://www.w3.org/Graphics/SVG/1.1/DTD/svg11.dtd">
<svg version="1.1" xmlns="http://www.w3.org/2000/svg" xmlns:xlink="http://www.w3.org/1999/xlink" x="0px" y="0px" viewBox="0 0 1000 1000" enable-background="new 0 0 1000 1000" xml:space="preserve">
<metadata> Svg Vector Icons : http://www.onlinewebfonts.com/icon </metadata>
<g><g transform="translate(0.000000,512.000000) scale(0.100000,-0.100000)"><path d="M1104.1,5003.9c-23-9.6-51.7-40.2-63.2-65.2c-15.3-34.5-21.1-477.2-21.1-1512v-1466h153.3h153.3v1379.7v1379.7h3219.4h3219.4V2114.1V-492h153.3h153.3v2495v2496.9l306.6-306.6l306.6-306.6V1698.3V-492h153.3h153.3v2232.5c0,1902.9-3.8,2242.1-26.8,2286.1c-34.5,61.3-923.6,948.6-983.1,979.2C7924.2,5034.6,1163.5,5032.7,1104.1,5003.9z"/><path d="M1633,4260.4v-153.3h1226.4h1226.4v153.3v153.3H2859.5H1633V4260.4z"/><path d="M4852.4,4066.8c-115-51.7-205-141.8-260.6-256.8c-57.5-120.7-57.5-205,0-325.8c40.2-88.1,201.2-258.7,243.4-258.7c9.6,0,17.2-210.8,17.2-469.5v-469.5L4632,1698.3c-182-482.9-216.5-594.1-195.5-609.4c34.5-24.9,241.5-93.9,251-84.3c3.8,3.8,113.1,285.5,239.5,626.6l231.9,617.1v469.5v469.5h613.2h613.2v-469.5v-471.4l383.3-996.5L7152,253.4V33v-218.4H5852.7H4555.4l-235.7,551.9l-235.7,550l1.9,300.9c0,321.9-13.4,381.3-90.1,415.8c-65.2,30.7-2820.8,30.7-2885.9,0c-76.7-34.5-90.1-93.9-90.1-417.7V912.6L559.9-160.5L100-1233.6V-2941c0-1211.1,5.7-1720.8,21.1-1753.4c11.5-26.8,42.2-57.5,69-69c65.2-30.7,4660.4-30.7,4725.6,0c26.8,11.5,57.5,42.2,69,69c15.3,30.7,21.1,314.3,21.1,896.8v852.8h469.5h469.5v-55.6c0-30.7,13.4-115,28.8-187.8c99.6-469.5,379.4-904.5,774.2-1199.6l120.7-90.1h-778h-778v-153.3v-155.2l1443,7.6c1247.5,5.8,1458.3,11.5,1565.6,38.3c601.7,149.5,1073.1,511.7,1352.9,1036.7c162.9,308.5,228,571.1,226.1,921.7c0,344.9-59.4,576.8-224.2,896.8c-274,528.9-781.8,916-1362.5,1040.5c-260.6,55.6-578.7,53.7-808.7-3.8l-46-11.5v576.8v578.7L7075.3,1292l-383.3,996.5v465.7v465.7l49.8,26.8c128.4,67.1,256.8,270.2,256.8,400.5c0,159-178.2,389-337.3,436.9c-57.5,17.3-312.4,23-900.7,23C4975.1,4107.1,4934.8,4105.2,4852.4,4066.8z M6653.7,3762.2c24.9-24.9,38.3-63.2,38.3-115c0-51.7-13.4-90.1-38.3-115c-36.4-36.4-63.2-38.3-881.5-38.3s-845.1,1.9-881.5,38.3c-24.9,24.9-38.3,63.2-38.3,115c0,51.7,13.4,90.1,38.3,115c36.4,36.4,63.2,38.3,881.5,38.3S6617.3,3798.6,6653.7,3762.2z M3779.3,1194.3V1041H2552.9H1326.4v153.3v153.3h1226.4h1226.4V1194.3z M3685.4,692.2c-9.6-24.9-185.9-436.9-392.8-916l-373.7-871.9l-1216.9-5.7l-1218.8-3.8l17.2,42.2c9.6,24.9,178.2,419.7,375.6,877.7c197.4,458,366,852.7,375.6,877.6l17.2,42.2h1216.8h1216.9L3685.4,692.2z M4279.4-306.1l339.2-789.5l-343-5.7c-187.8-1.9-498.2-1.9-686,0l-343,5.7l337.3,791.4c185.9,433.1,343,789.5,348.8,789.5C3938.3,485.3,4093.6,128.8,4279.4-306.1z M7152-727.7v-235.7l-128.4-63.2c-519.3-254.9-927.5-785.7-1050.1-1368.2c-15.3-72.8-28.8-157.1-28.8-187.8v-55.6h-469.5h-469.5v701.4v701.4l-153.3,356.4c-84.3,197.4-153.3,364.1-153.3,371.8c0,7.7,551.9,15.3,1226.4,15.3H7152V-727.7z M8378.4-1162.7c191.6-53.7,461.8-189.7,607.5-306.6c258.7-207,477.1-546.1,563.4-871.9c57.5-218.5,69-546.1,26.8-766.5C9419-3949,8704.2-4512.4,7841.8-4472.2c-272.1,11.5-471.4,63.2-699.4,176.3c-320,159-567.2,406.3-726.3,728.2c-141.8,281.7-174.4,427.3-174.4,776.1c0,325.8,28.8,467.6,141.8,718.6c224.2,492.5,687.9,850.8,1232.2,946.6C7786.3-1095.7,8213.6-1114.8,8378.4-1162.7z M2859.5-2944.9v-1533H1633H406.6v1533v1533H1633h1226.4V-2944.9z M4699.1-2944.9v-1533h-766.5h-766.5v1533v1533h766.5h766.5V-2944.9z"/><path d="M1966.5,410.5c-95.8-24.9-254.9-120.7-316.2-187.8c-111.1-126.5-159-251-159-408.2c0-126.5,7.7-157.1,63.2-264.4c161-297,488.7-421.6,768.4-289.4c153.3,70.9,239.5,155.2,310.4,300.9c111.1,226.1,76.7,461.8-99.6,661.1C2409.1,364.6,2138.9,454.6,1966.5,410.5z M2280.7,71.4c84.3-63.2,122.6-155.2,113.1-281.7C2382.3-402,2267.3-499.7,2068-486.3c-191.6,11.5-289.4,126.5-276,325.8c7.7,126.5,49.8,197.4,149.5,249.1C2027.8,134.6,2206,125,2280.7,71.4z"/><path d="M7765.2-1565.1v-153.3h153.3h153.3v153.3v153.3h-153.3h-153.3V-1565.1z"/><path d="M8991.6-2862.5c-1.9-222.3-132.2-519.3-308.5-693.7c-174.4-176.3-471.4-306.6-691.8-308.5h-72.8V-4018c0-178.2-9.6-172.5,237.6-126.5c557.6,107.3,1008,559.6,1115.3,1119.1c46,243.4,51.7,233.8-126.5,233.8h-153.3V-2862.5z"/><path d="M1019.8-4018v-153.3H1633h613.2v153.3v153.3H1633h-613.2V-4018z"/><path d="M3779.3-1871.8v-153.3h153.3h153.3v153.3v153.3h-153.3h-153.3V-1871.8z"/><path d="M3779.3-2485v-153.3h153.3h153.3v153.3v153.3h-153.3h-153.3V-2485z"/><path d="M3779.3-3098.2v-153.3h153.3h153.3v153.3v153.3h-153.3h-153.3V-3098.2z"/><path d="M1633,3647.2v-153.3h613.2h613.2v153.3v153.3h-613.2H1633V3647.2z"/></g></g>
</svg>